mtllib danchou_cone.mtl

o pyramid
v 0.5 0.5 0.5
v 0.625 0 0.625
v 0.625 0 0.375
v 0.375 0 0.625
v 0.375 0 0.375
vt 0.015625 0.984375
vt 0.015625 1
vt 0 1
vt 0 0.984375
vt 0 0.96778828125
vt 0.015625 0.96778828125
vt 0.0078125 1
vt 0 0.96778828125
vt 0.015625 0.96778828125
vt 0.0078125 1
vt 0.25 0.003630273437501219
vt 0.73046875 0.003630273437501219
vt 0.490234375 0.994140625
vt 0 0.96778828125
vt 0.015625 0.96778828125
vt 0.0078125 1
vn 0 -1 0
vn 0.9701425001453319 0.24253562503633297 0
vn 0 0.24253562503633297 0.9701425001453319
vn 0 0.24253562503633297 -0.9701425001453319
vn -0.9701425001453319 0.24253562503633297 0
usemtl m_5da9e4b9-0d16-0d62-2fdc-bebc0a5680d5
f 3/1/1 2/2/1 4/3/1 5/4/1
f 2/5/2 3/6/2 1/7/2
f 4/8/3 2/9/3 1/10/3
f 3/11/4 5/12/4 1/13/4
f 5/14/5 4/15/5 1/16/5
